<svg width="24" height="24" viewBox="0 0 24 24" fill="none" xmlns="http://www.w3.org/2000/svg">
<g clip-path="url(#clip0_3733_15448)">
<path d="M14.5573 13.5583C14.3238 13.9513 14.0036 14.2857 13.6211 14.536C13.2386 14.7864 12.804 14.946 12.3505 15.0028C11.8969 15.0596 11.4363 15.0121 11.0039 14.8638C10.5716 14.7155 10.1788 14.4703 9.85554 14.1471C9.53231 13.8239 9.28719 13.4311 9.13889 12.9987C8.99059 12.5663 8.94302 12.1058 8.99982 11.6522C9.05662 11.1986 9.21628 10.764 9.46663 10.3815C9.71697 9.99908 10.0514 9.67886 10.4443 9.44531" stroke="#B5B9BD" stroke-width="1.5" stroke-linecap="round" stroke-linejoin="round"/>
<path d="M17.9939 16.9937C16.2699 18.3014 14.1638 19.0062 11.9999 18.9997C10.242 19.031 8.51018 18.5714 6.99909 17.6726C5.48799 16.7738 4.25751 15.4713 3.44593 13.9117C3.15258 13.317 3 12.6628 3 11.9997C3 11.3366 3.15258 10.6823 3.44593 10.0877C4.27391 8.43899 5.59377 7.08838 7.22293 6.22266" stroke="#B5B9BD" stroke-width="1.5" stroke-linecap="round" stroke-linejoin="round"/>
<path d="M20.4249 14.1355C20.4649 14.0595 20.5169 13.9905 20.5549 13.9135C20.8483 13.3188 21.0009 12.6646 21.0009 12.0015C21.0009 11.3384 20.8483 10.6842 20.5549 10.0895C19.7434 8.52982 18.5129 7.22739 17.0018 6.32857C15.4907 5.42976 13.7589 4.97019 12.0009 5.0015C11.7759 5.0015 11.5579 5.0315 11.3359 5.0465" stroke="#B5B9BD" stroke-width="1.5" stroke-linecap="round" stroke-linejoin="round"/>
<path d="M21 20L4 3" stroke="#B5B9BD" stroke-width="1.5" stroke-linecap="round" stroke-linejoin="round"/>
</g>
<defs>
<clipPath id="clip0_3733_15448">
<rect width="24" height="24" fill="white"/>
</clipPath>
</defs>
</svg>
